<svg width="16" height="16" viewBox="0 0 16 16" fill="none" xmlns="http://www.w3.org/2000/svg">
<path d="M13.9147 16H13.7035C11.3239 15.7421 9.03771 14.9339 7.02719 13.6398C5.15945 12.4548 3.57366 10.8783 2.38038 9.02001C1.07832 7.012 0.266838 4.72793 0.0110621 2.35106C-0.0181779 2.06756 0.0106948 1.78109 0.0959444 1.50904C0.181185 1.237 0.321021 0.98503 0.506966 0.768439C0.687824 0.548949 0.911055 0.367845 1.16345 0.235847C1.41584 0.103858 1.69225 0.023657 1.97631 0H4.364C4.88114 0.000521441 5.38103 0.185221 5.77343 0.520746C6.16583 0.85627 6.42485 1.32051 6.50373 1.82962C6.59098 2.4836 6.75426 3.12523 6.99045 3.74157C7.13408 4.12888 7.16375 4.54901 7.07595 4.95254C6.98807 5.35606 6.7864 5.72621 6.49455 6.01944L5.93436 6.57747C6.81634 7.9645 7.99943 9.13683 9.39651 10.008L9.9567 9.45912C10.251 9.16839 10.6227 8.9675 11.0278 8.87995C11.4328 8.79249 11.8545 8.82204 12.2434 8.96512C12.8628 9.19821 13.5066 9.36087 14.1627 9.44997C14.6825 9.52782 15.1559 9.79192 15.4941 10.1928C15.8322 10.5938 16.012 11.1038 15.9994 11.6272V13.8228C15.9994 14.3938 15.7723 14.9416 15.3678 15.3462C14.9634 15.7508 14.4145 15.9793 13.8413 15.9817L13.9147 16ZM4.364 1.36307H2.16916C2.0614 1.37016 1.95619 1.39895 1.85991 1.44769C1.76362 1.49644 1.67826 1.56412 1.60898 1.64666C1.54155 1.72397 1.49051 1.81408 1.45895 1.91155C1.42738 2.00902 1.41594 2.11185 1.42531 2.21384C1.648 4.36984 2.37452 6.44391 3.54668 8.26986C4.62723 9.95924 6.06598 11.3925 7.76186 12.4688C9.59606 13.6488 11.6804 14.3879 13.8505 14.6278C13.9633 14.6341 14.0763 14.6171 14.1822 14.5777C14.2881 14.5383 14.3847 14.4775 14.4658 14.3991C14.612 14.2498 14.6943 14.0497 14.6953 13.8411V11.6547C14.6995 11.4622 14.6326 11.2748 14.5074 11.1281C14.3821 10.9814 14.2071 10.8856 14.0158 10.8588C13.2571 10.7571 12.5119 10.5731 11.7934 10.3099C11.6519 10.2572 11.4982 10.2455 11.3503 10.2763C11.2023 10.3071 11.0662 10.379 10.9577 10.4837L10.0393 11.3985C9.93181 11.503 9.79323 11.5701 9.64437 11.5899C9.49541 11.6096 9.34416 11.581 9.21284 11.5083C7.25328 10.4052 5.63128 8.79268 4.52012 6.84276C4.44406 6.71286 4.41361 6.56137 4.43356 6.41225C4.45352 6.26323 4.52274 6.12498 4.63032 6.01944L5.54866 5.10463C5.65397 4.99853 5.72642 4.8645 5.75736 4.71851C5.7883 4.57253 5.77643 4.42075 5.72314 4.28131C5.45792 3.56591 5.27313 2.82343 5.17214 2.06747C5.14936 1.87103 5.05398 1.69007 4.90458 1.55986C4.75518 1.42964 4.56248 1.35949 4.364 1.36307Z" fill="white"/>
</svg>
